<svg width="50" height="50" viewBox="0 0 50 50" fill="none" xmlns="http://www.w3.org/2000/svg">
<path d="M25 45.8335C22.3958 45.8335 19.9563 45.3384 17.6813 44.3481C15.4063 43.3578 13.4271 42.0217 11.7438 40.3397C10.0604 38.655 8.72431 36.6759 7.73542 34.4022C6.74653 32.1286 6.25139 29.6891 6.25 27.0835C6.25 24.4793 6.74514 22.0397 7.73542 19.7647C8.72569 17.4897 10.0618 15.5106 11.7438 13.8272C13.4285 12.1439 15.4076 10.8078 17.6813 9.81891C19.9549 8.83002 22.3944 8.33489 25 8.3335C27.6042 8.3335 30.0438 8.82863 32.3188 9.81891C34.5938 10.8092 36.5729 12.146 38.2563 13.8293C39.9396 15.5127 41.2764 17.4918 42.2667 19.7668C43.2569 22.0418 43.7514 24.4807 43.75 27.0835C43.75 29.6877 43.2549 32.1272 42.2646 34.4022C41.2743 36.6772 39.9382 38.6564 38.2563 40.3397C36.5715 42.0231 34.5924 43.3599 32.3188 44.3502C30.0451 45.3404 27.6056 45.8349 25 45.8335ZM30.8333 35.8335L33.75 32.9168L27.0833 26.2502V16.6668H22.9167V27.9168L30.8333 35.8335ZM11.6667 4.896L14.5833 7.81266L5.72917 16.6668L2.8125 13.7502L11.6667 4.896ZM38.3333 4.896L47.1875 13.7502L44.2708 16.6668L35.4167 7.81266L38.3333 4.896ZM25 41.6668C29.0625 41.6668 32.509 40.2515 35.3396 37.421C38.1701 34.5904 39.5847 31.1446 39.5833 27.0835C39.5833 23.021 38.1681 19.5745 35.3375 16.7439C32.5069 13.9134 29.0611 12.4988 25 12.5002C20.9375 12.5002 17.491 13.9154 14.6604 16.746C11.8299 19.5766 10.4153 23.0224 10.4167 27.0835C10.4167 31.146 11.8319 34.5925 14.6625 37.4231C17.4931 40.2536 20.9389 41.6682 25 41.6668Z" fill="#6366F1"/>
</svg>
