<svg width="50" height="50" viewBox="0 0 50 50" fill="none" xmlns="http://www.w3.org/2000/svg">
<path d="M21.9584 30.2708L17.5209 25.8333L15.3126 28.0417L21.9376 34.6667L34.4376 22.1667L32.2292 19.9583L21.9584 30.2708ZM25.0001 41.6667C21.1323 41.6667 17.423 40.1302 14.6881 37.3953C11.9532 34.6604 10.4167 30.9511 10.4167 27.0833C10.4167 23.2156 11.9532 19.5063 14.6881 16.7714C17.423 14.0365 21.1323 12.5 25.0001 12.5C28.8678 12.5 32.5772 14.0365 35.3121 16.7714C38.047 19.5063 39.5834 23.2156 39.5834 27.0833C39.5834 30.9511 38.047 34.6604 35.3121 37.3953C32.5772 40.1302 28.8678 41.6667 25.0001 41.6667ZM25.0001 8.33333C20.0273 8.33333 15.2581 10.3088 11.7418 13.8251C8.22552 17.3414 6.25008 22.1105 6.25008 27.0833C6.25008 32.0561 8.22552 36.8253 11.7418 40.3416C15.2581 43.8579 20.0273 45.8333 25.0001 45.8333C29.9729 45.8333 34.742 43.8579 38.2583 40.3416C41.7746 36.8253 43.7501 32.0561 43.7501 27.0833C43.7501 22.1105 41.7746 17.3414 38.2583 13.8251C34.742 10.3088 29.9729 8.33333 25.0001 8.33333ZM16.4167 7.0625L13.7501 3.875L4.16675 11.8958L6.85425 15.0833L16.4167 7.0625ZM45.8334 11.9167L36.2501 3.875L33.5626 7.0625L43.1459 15.1042L45.8334 11.9167Z" fill="#6366F1"/>
</svg>
