<svg width="50" height="50" viewBox="0 0 50 50" fill="none" xmlns="http://www.w3.org/2000/svg">
<path d="M33.0063 11.294C33.2625 11.2773 33.5104 11.2856 33.751 11.3252C33.9833 11.3638 34.2094 11.4294 34.424 11.5242C37.8729 13.0294 37.6302 21.2096 33.8823 29.7929C30.1354 38.3763 24.3302 41.6054 20.8635 40.1419C16.8479 38.4461 17.6479 32.9242 21.3948 24.3398C21.651 23.7534 21.9188 23.1815 22.1938 22.6211C20.9781 20.994 19.7583 19.3659 18.5792 17.7825C17.7275 19.1767 16.9726 20.6276 16.3198 22.1252C11.651 32.82 12.6552 42.0659 18.4833 44.6106C24.7344 47.3398 34.9 41.9075 38.5479 31.92C42.1969 21.9325 44.1146 9.49085 34.2719 7.17314C33.2198 7.00752 31.9656 6.79085 30.399 6.72314" stroke="#6366F1" stroke-linecap="round" stroke-linejoin="round"/>
<path d="M25.0093 16.4635C27.0096 16.4635 28.6312 14.8419 28.6312 12.8416C28.6312 10.8413 27.0096 9.21973 25.0093 9.21973C23.009 9.21973 21.3875 10.8413 21.3875 12.8416C21.3875 14.8419 23.009 16.4635 25.0093 16.4635Z" stroke="#6366F1" stroke-linecap="round" stroke-linejoin="round"/>
<path d="M18.1041 17.1446C17.5372 16.244 17.1522 15.2411 16.9707 14.1925C16.6123 12.0604 17.1156 9.87327 18.3697 8.1122C19.6238 6.35113 21.5262 5.16037 23.6582 4.80186C24.714 4.62425 25.7944 4.65738 26.8378 4.89735C27.8812 5.13731 28.8671 5.58044 29.7392 6.20144C30.6113 6.82244 31.3525 7.60915 31.9206 8.51663C32.4887 9.42412 32.8724 10.4346 33.0499 11.4904C33.1926 12.4164 33.1072 13.5935 32.9593 14.6487C31.7312 18.9123 29.877 23.6946 28.4864 28.5758C28.4864 28.5758 28.2697 29.1904 27.7718 29.2737C27.2728 29.3581 26.8468 28.8539 26.8468 28.8539C23.9624 24.9998 20.9374 20.9498 18.1041 17.1446ZM18.1041 17.1446C18.1353 17.1967 18.0864 17.1133 18.1041 17.1446Z" stroke="#6366F1" stroke-linecap="round" stroke-linejoin="round"/>
<path d="M17.9676 8.6958C11.702 11.5562 9.0926 14.5406 8.56344 18.5479C8.03427 22.5562 10.4801 24.5458 13.6968 23.8708C13.2093 23.0135 12.5947 21.2312 12.8509 19.4271C13.1082 17.6229 14.8041 15.3646 16.8905 14.1125" stroke="#6366F1" stroke-linecap="round" stroke-linejoin="round"/>
</svg>
